# xmcd CD database file
# Generated: Tue Aug 5 01:37:32 2003 by KSCD
# 
# Track frame offsets:
#       150
#       13170
#       24895
#       36692
#       47882
#       59687
#       70996
#       83907
#       93950
#       104413
#       116179
#       127583
#       137913
#       149129
#
# Disc length: 2128 seconds
#
# Revision: 4
# Processed by: cddbd v1.4PL0 Copyright (c) Steve Scherf et al.
# Submitted via: Kscd 1.3.3
#
DISCID=d2084e0e
DTITLE=Robert Johnson - The Great Robert Johnson
DYEAR=1900
DGENRE=Blues
TTITLE0=Rambling on My Mind
TTITLE1=If I Had Possession Over Judgement Day
TTITLE2=I'm a Steady Rollin' Man
TTITLE3=Love in Vain
TTITLE4=Hellhound on My Trail
TTITLE5=Walking Blues
TTITLE6=Kindhearted Woman Blues
TTITLE7=Little Queen of Spades
TTITLE8=Malted Milk
TTITLE9=Me and the Devil Blues
TTITLE10=Dead Shrimp Blues
TTITLE11=Stop Breakin' Down Blues
TTITLE12=Stones in My Passway
TTITLE13=Honeymoon Blues
EXTD=Disc 2 of 3
EXTT0=
EXTT1=
EXTT2=
EXTT3=
EXTT4=
EXTT5=
EXTT6=
EXTT7=
EXTT8=
EXTT9=
EXTT10=
EXTT11=
EXTT12=
EXTT13=
PLAYORDER=
